<svg width="32" height="32" viewBox="0 0 32 32" fill="none" xmlns="http://www.w3.org/2000/svg">
<g id="P3StudioLogo">
<path id="Vector" d="M17.9794 0.130946L17.9949 0.26047C18.6289 0.516342 19.6074 0.910433 19.7406 0.960823C19.8908 1.01765 19.9857 1.08812 20.0036 1.15488C20.2912 1.89561 20.8205 2.38273 21.1661 2.61269C21.4544 2.72512 21.6353 2.59433 21.667 2.50588L21.7441 1.77387L21.6778 1.68267L21.7565 0.978015L22.0192 1.18399L22.0006 1.31308C22.5468 1.72433 23.39 2.35827 23.5056 2.44141C23.636 2.53517 23.7095 2.62781 23.7093 2.69691C23.7955 3.48682 24.1807 4.09435 24.4549 4.40594C24.7043 4.58914 24.9129 4.50966 24.9665 4.43242L25.2304 3.7453L25.19 3.64004L25.4483 2.97975L25.6488 3.24671L25.5973 3.36659C26.0185 3.90519 26.6689 4.73575 26.7591 4.84599C26.8608 4.9703 26.9077 5.0788 26.8897 5.14551C26.7684 5.93079 26.9833 6.61733 27.1677 6.9893C27.3611 7.23079 27.5832 7.20802 27.6549 7.14727L28.0877 6.55187L28.0759 6.43974L28.4963 5.86881L28.6208 6.17855L28.5401 6.28105C28.8076 6.9103 29.2208 7.88089 29.2793 8.0107C29.3453 8.15709 29.3627 8.27405 29.328 8.33385C29.0076 9.06097 29.0375 9.77972 29.1193 10.1867C29.2436 10.4701 29.464 10.5055 29.5491 10.4654L30.1212 10.0023L30.1388 9.89094L30.6927 9.44828L30.7328 9.77972L30.6283 9.85782C30.7237 10.5349 30.8717 11.5793 30.8947 11.7199C30.9205 11.8784 30.9069 11.9958 30.8581 12.0446C30.3604 12.664 30.2032 13.366 30.1768 13.7804C30.2236 14.0861 30.4273 14.1776 30.5199 14.1608L31.1923 13.8614L31.2381 13.7585L31.8877 13.4742L31.8407 13.8048L31.7196 13.8532C31.6365 14.5318 31.5091 15.579 31.4949 15.7208C31.4789 15.8805 31.4355 15.9905 31.3755 16.0249C30.7345 16.4944 30.4009 17.1318 30.2683 17.5252C30.2343 17.8326 30.4075 17.9737 30.5011 17.9814L31.2281 17.8664L31.2991 17.7788L32 17.6724L31.8691 17.9794L31.7396 17.9949C31.4837 18.6289 31.0896 19.6075 31.0392 19.7407C30.9824 19.8908 30.912 19.9857 30.8452 20.0036C30.1285 20.2817 29.6493 20.7863 29.4107 21.1319L28.0543 20.9572L27.9693 20.9472L27.8939 20.9169L27.7877 20.8673L27.6957 20.8193L27.6215 20.7547L27.5608 20.6716L27.5084 20.5923L27.476 20.5124L27.45 20.4405L27.4457 20.3539L27.4316 20.2776L27.4396 20.1968L27.4615 20.1075L27.4839 20.0383L27.528 19.9545L27.5768 19.8927L27.6412 19.8084L27.7025 19.7624L27.7835 19.6957L27.8712 19.6572L27.9532 19.6308L28.0436 19.6184L28.1163 19.6225L28.2195 19.636L28.3007 19.654L28.3959 19.6737L28.4523 19.6703L28.5019 19.6387L28.5365 19.5753L28.5573 19.5203L28.5497 19.462L28.522 19.4043L28.4684 19.3592L28.3869 19.3312L28.3179 19.3088L28.2269 19.3011L28.1157 19.2939L28.0153 19.3065L27.9044 19.3095L27.8064 19.3383L27.6808 19.3939L27.5615 19.4575L27.4549 19.5471L27.3649 19.6543L27.2424 19.8308L27.1699 19.986L27.1415 20.132L27.1236 20.2977L27.1261 20.4732L27.1532 20.5853L27.2136 20.7331L27.2875 20.8621L27.4205 21.014L27.6059 21.1604L27.7651 21.2349L27.9053 21.2756L29.3564 21.4829C29.3827 21.5857 29.4449 21.6495 29.4941 21.6671L30.2261 21.7441L30.3173 21.6779L31.022 21.7565L30.816 22.0192L30.6869 22.0005C30.2757 22.5468 29.6417 23.39 29.5587 23.5056C29.4649 23.636 29.3723 23.7095 29.3032 23.7093C28.5132 23.7955 27.9057 24.1807 27.5941 24.4549C27.4109 24.7043 27.4904 24.9129 27.5676 24.9665L28.2548 25.2304L28.36 25.19L29.0203 25.4483L28.7533 25.6488L28.6335 25.5973C28.0948 26.0185 27.2643 26.6689 27.1541 26.7591C27.0297 26.8608 26.9212 26.9077 26.8545 26.8897C26.0692 26.7684 25.3827 26.9833 25.0108 27.1677C24.7693 27.3611 24.792 27.5832 24.8528 27.6549L25.4481 28.0877L25.5603 28.0759L26.1312 28.4963L25.8215 28.6208L25.7191 28.5401C25.0897 28.8075 24.1192 29.2208 23.9893 29.2793C23.8429 29.3453 23.726 29.3627 23.6663 29.328C22.9391 29.0076 22.2203 29.0375 21.8133 29.1193C21.53 29.2436 21.4945 29.464 21.5346 29.5491L21.9977 30.1212L22.1091 30.1388L22.5517 30.6927L22.2204 30.7328L22.1422 30.6283C21.4652 30.7237 20.4208 30.8717 20.2801 30.8947C20.1217 30.9205 20.0042 30.9069 19.9554 30.858C19.336 30.3604 18.634 30.2032 18.2197 30.1768C17.9138 30.2236 17.8225 30.4273 17.8393 30.5199L18.1385 31.1923L18.2416 31.2381L18.5258 31.8877L18.1953 31.8407L18.1469 31.7196C17.4682 31.6365 16.421 31.5091 16.2793 31.4949C16.1196 31.4789 16.0096 31.4353 15.9752 31.3755C15.5056 30.7345 14.8682 30.4009 14.4749 30.2683C14.1673 30.2343 14.0264 30.4075 14.0186 30.5011L14.1336 31.2281L14.2213 31.2991L14.3277 32L14.0206 31.8691L14.0052 31.7396C13.3712 31.4837 12.3926 31.0896 12.2594 31.0392C12.1092 30.9824 12.0143 30.9119 11.9965 30.8452C11.7089 30.1044 11.1796 29.6173 10.8339 29.3873C10.5457 29.2749 10.3647 29.4057 10.333 29.4941L10.2559 30.2261L10.3222 30.3173L10.2436 31.022L9.98082 30.816L9.99946 30.6869C9.45326 30.2757 8.61007 29.6417 8.49446 29.5587C8.36408 29.4649 8.29062 29.3723 8.2907 29.3032C8.20464 28.5132 7.81941 27.9057 7.54507 27.5941C7.29575 27.4109 7.08707 27.4904 7.03353 27.5676L6.76961 28.2548L6.81008 28.36L6.55175 29.0203L6.35125 28.7533L6.40267 28.6335C5.98152 28.0948 5.33113 27.2643 5.24097 27.154C5.1393 27.0297 5.09232 26.9212 5.11029 26.8545C5.2316 26.0692 5.01674 25.3827 4.83238 25.0108C4.63898 24.7692 4.41685 24.792 4.34514 24.8528L3.91238 25.4481L3.92422 25.5603L3.50379 26.1312L3.37922 25.8215L3.45991 25.7191C3.19251 25.0897 2.77926 24.1192 2.7207 23.9893C2.65467 23.8429 2.63737 23.726 2.67199 23.6663C2.97735 22.9733 2.96461 22.288 2.89194 21.8728L3.97052 21.004L4.03646 20.9496L4.11053 20.9161L4.21986 20.8739L4.3182 20.8408L4.41625 20.8319L4.51822 20.8457L4.61177 20.8627L4.69176 20.8947L4.7617 20.9256L4.82716 20.9825L4.89194 21.0251L4.94478 21.0868L4.99409 21.1644L5.02848 21.2285L5.05838 21.3184L5.06917 21.3964L5.0855 21.5012L5.07621 21.5773L5.06826 21.6819L5.03538 21.7719L4.99762 21.8493L4.944 21.9232L4.89066 21.9727L4.80953 22.0379L4.74033 22.084L4.66014 22.1391L4.62364 22.1821L4.61206 22.2397L4.63384 22.3087L4.65916 22.3617L4.70645 22.3967L4.76733 22.4167L4.8369 22.4091L4.91354 22.3699L4.97758 22.3355L5.0461 22.2751L5.12821 22.1999L5.18862 22.1187L5.26326 22.0367L5.3104 21.9459L5.35714 21.8168L5.39386 21.6865L5.40305 21.5477L5.38797 21.4085L5.34529 21.198L5.28357 21.0381L5.19796 20.9165L5.09066 20.7889L4.96233 20.6693L4.86257 20.6112L4.71426 20.5525L4.56986 20.5164L4.36822 20.5073L4.13428 20.5397L3.97028 20.6031L3.84384 20.676L2.69342 21.5767C2.59717 21.5136 2.50082 21.5111 2.45101 21.5347L1.8789 21.9977L1.86131 22.1091L1.30744 22.5517L1.26728 22.2204L1.37175 22.1423C1.27632 21.4652 1.12836 20.4208 1.1054 20.2801C1.07951 20.1217 1.09306 20.0043 1.14198 19.9555C1.63969 19.336 1.79689 18.6341 1.82321 18.2197C1.77646 17.9138 1.5727 17.8225 1.48022 17.8393L0.807751 18.1385L0.761924 18.2416L0.11236 18.5258L0.159356 18.1953L0.280483 18.1469C0.363537 17.4682 0.490937 16.421 0.505137 16.2793C0.52115 16.1196 0.564644 16.0096 0.624524 15.975C1.26558 15.5056 1.59911 14.8682 1.73178 14.4749C1.76577 14.1673 1.59259 14.0264 1.49894 14.0186L0.771924 14.1336L0.70099 14.2213L0 14.3277L0.130946 14.0206L0.26047 14.0052C0.516337 13.3712 0.910431 12.3926 0.960818 12.2594C1.01764 12.1092 1.08811 12.0143 1.15488 11.9965C1.89561 11.7089 2.38274 11.1796 2.6127 10.8339C2.72513 10.5457 2.59434 10.3647 2.50587 10.333L1.77387 10.2559L1.68267 10.3222L0.978018 10.2436L1.18399 9.98082L1.31308 9.99946C1.72434 9.45326 2.35826 8.61008 2.44141 8.49446C2.53518 8.36408 2.62781 8.29061 2.6969 8.2907C3.48681 8.20464 4.09434 7.81942 4.40593 7.54507C4.58914 7.29575 4.50965 7.08707 4.43241 7.03353L3.7453 6.76962L3.64005 6.81007L2.97975 6.55174L3.24671 6.35125L3.36658 6.40266C3.9052 5.98151 4.73576 5.33112 4.84598 5.24098C4.9703 5.13931 5.0788 5.09231 5.14552 5.11028C5.9308 5.2316 6.61733 5.01675 6.98931 4.83238C7.23079 4.63898 7.20801 4.41684 7.14727 4.34514L6.55188 3.91239L6.43973 3.92422L5.8688 3.50379L6.17856 3.37923L6.28104 3.45991C6.91029 3.19252 7.88088 2.77925 8.0107 2.72071C8.1571 2.65468 8.27406 2.63737 8.33384 2.67199C9.06098 2.99243 9.77972 2.96257 10.1867 2.88077C10.4701 2.75645 10.5056 2.536 10.4654 2.45101L10.0023 1.87889L9.89095 1.86131L9.44828 1.30744L9.77972 1.26728L9.85783 1.37175C10.5348 1.27633 11.5793 1.12836 11.7199 1.1054C11.8784 1.07951 11.9958 1.09307 12.0446 1.14199C12.664 1.63968 13.366 1.79688 13.7804 1.82321C14.0861 1.77645 14.1776 1.57269 14.1608 1.48023L13.8616 0.807745L13.7585 0.761924L13.4742 0.11236L13.8048 0.159356L13.8532 0.280479C14.5318 0.363534 15.579 0.490934 15.7208 0.505134C15.8805 0.521146 15.9905 0.564639 16.0249 0.624521C16.4893 1.25859 17.118 1.5918 17.5122 1.72736L17.819 3.1112L17.8386 3.19447L17.8357 3.27568L17.825 3.39239L17.811 3.49523L17.7754 3.58703L17.7178 3.6723L17.6612 3.74858L17.597 3.80608L17.5382 3.85502L17.4582 3.88843L17.3913 3.92756L17.3125 3.94751L17.221 3.95724L17.1484 3.95966L17.0545 3.94654L16.9798 3.92159L16.8786 3.8897L16.8146 3.84762L16.7245 3.7941L16.6584 3.72467L16.6058 3.65648L16.5634 3.57564L16.5426 3.50584L16.5202 3.40422L16.5097 3.32176L16.4958 3.22544L16.4734 3.17359L16.4269 3.13765L16.3556 3.12659L16.2968 3.12573L16.2445 3.15263L16.1996 3.19831L16.1754 3.264L16.1766 3.35012L16.179 3.42276L16.2026 3.51094L16.2336 3.61788L16.2797 3.70811L16.32 3.81139L16.3804 3.89386L16.4754 3.9931L16.5757 4.08376L16.6961 4.15363L16.8274 4.20187L17.0352 4.2571L17.2057 4.27271L17.3526 4.24995L17.5148 4.21047L17.6788 4.14854L17.7752 4.08494L17.8936 3.97808L17.99 3.8647L18.0877 3.68804L18.1625 3.46403L18.1785 3.28896L18.1692 3.14325L17.8629 1.66515C17.9394 1.61417 17.9774 1.54636 17.9814 1.49893L17.8664 0.771921L17.7788 0.700994L17.6724 0L17.9794 0.130946Z" fill="#2B2B2B"/>
<path id="Vector_2" d="M11.8406 23.6789C11.8167 25.1593 10.9542 25.9672 10.5259 26.1861C13.3943 25.8279 14.4998 24.8131 14.4998 23.6789C14.4898 18.9135 14.4759 9.09616 14.4998 7.95006C14.5237 6.80398 15.2667 6.03991 15.6351 5.80115C12.8146 5.84889 11.8406 7.29345 11.8406 8.72606C11.8506 13.0936 11.8645 22.1987 11.8406 23.6789Z" fill="#E7E7E7"/>
<path id="Vector_3" d="M15.4261 7.95006V17.68C17.5773 17.3218 18.0256 16.1478 17.9956 15.3817V5.80115C15.9161 5.80115 15.4161 7.23375 15.4261 7.95006Z" fill="#E7E7E7"/>
<path id="Vector_4" d="M18.9219 15.3817V5.80115C20.7624 5.80115 21.4317 7.23375 21.4616 7.95006C21.4814 9.10411 21.4616 11.7635 21.4616 13.0537C21.4616 14.8445 19.6987 15.133 18.9219 15.3817Z" fill="#E7E7E7"/>
</g>
</svg>
