<svg width="33" height="33" viewBox="0 0 33 33" fill="none" xmlns="http://www.w3.org/2000/svg">
<path id="Hammers" d="M29.9607 11.318C28.5382 10.0322 28.4491 7.85148 28.5824 6.92183C28.4812 6.12919 27.6389 3.89448 25.08 1.29666C23.1719 -0.474454 18.8207 -0.012777 18.153 0.474902C22.65 1.46554 23.8297 3.90731 23.8575 5.00436L22.5606 6.8165L22.7111 7.15863L21.5117 8.30807L21.6347 8.56947L16.6509 13.3441L16.5141 13.0239C16.3649 13.1364 16.2041 13.2581 16.0338 13.3877C15.8634 13.2581 15.7028 13.1364 15.5535 13.0239L15.4167 13.3441L10.433 8.56947L10.5559 8.30807L9.35646 7.15863L9.50701 6.8165L8.21013 5.00436C8.23787 3.90731 9.4176 1.46554 13.9146 0.474902C13.2469 -0.012777 8.8957 -0.474454 6.98769 1.29666C4.42869 3.89448 3.58647 6.12919 3.48524 6.92183C3.61851 7.85148 3.52943 10.0322 2.10691 11.318L1.22335 13.2049C1.19581 13.2854 1.17962 13.5087 1.33514 13.7576C1.49066 14.0066 3.10574 15.4707 3.89383 16.1717C3.94251 16.186 4.05771 16.1698 4.12907 15.9902C4.20043 15.8107 4.69513 14.6433 4.93356 14.082C4.90668 13.0062 5.11204 10.7212 6.14852 10.1865C7.185 9.65193 7.9372 9.95004 8.18374 10.1659L8.31596 9.92224L9.41324 10.9523L9.51507 10.7209L13.8606 15.0728C11.5846 16.8683 8.95309 19.0439 7.97224 20.1842C6.19981 22.2445 1.80413 26.831 0.599374 27.1761C-0.331795 27.4426 0.0874033 29.3163 0.443242 30.3126L0.440079 30.3156C0.44809 30.3342 0.456318 30.353 0.464759 30.372L0.470455 30.3875C0.473766 30.3963 0.477068 30.4053 0.480359 30.4141L0.482613 30.4119C0.904423 31.3454 1.80915 32.7569 2.37931 31.5945C3.11699 30.0904 7.74694 26.0852 9.73678 24.5643C10.9652 23.6253 13.8593 20.4338 16.0338 17.9466C18.2083 20.4338 21.1024 23.6253 22.3309 24.5643C24.3207 26.0852 28.9507 30.0904 29.6883 31.5945C30.2585 32.7569 31.1632 31.3454 31.585 30.4119L31.5872 30.4141C31.5924 30.4002 31.5977 30.3862 31.6029 30.372C31.6113 30.353 31.6196 30.3342 31.6275 30.3156L31.6244 30.3126C31.9802 29.3163 32.3994 27.4426 31.4683 27.1761C30.2635 26.831 25.8678 22.2445 24.0954 20.1842C23.1146 19.0439 20.4831 16.8683 18.207 15.0728L22.5526 10.7209L22.6544 10.9523L23.7517 9.92224L23.8839 10.1659C24.1304 9.95004 24.8826 9.65193 25.9191 10.1865C26.9556 10.7212 27.161 13.0062 27.1341 14.082C27.3725 14.6433 27.8672 15.8107 27.9385 15.9902C28.0099 16.1698 28.1251 16.186 28.1738 16.1717C28.9619 15.4707 30.577 14.0066 30.7325 13.7576C30.888 13.5087 30.8719 13.2854 30.8443 13.2049L29.9607 11.318Z" fill="#2B2B2B" fill-opacity="0.05"/>
</svg>
