<svg viewBox="0 0 25 35" fill="none" xmlns="http://www.w3.org/2000/svg">
<path id="BlogIcon" fill-rule="evenodd" clip-rule="evenodd" d="M2.21521 0.96106H19.7403L24.9639 6.17718V32.3924C24.9639 33.4348 24.1112 34.2798 23.0592 34.2798H2.21521C1.16329 34.2798 0.310547 33.4348 0.310547 32.3924V2.8485C0.310547 1.8061 1.16329 0.96106 2.21521 0.96106ZM5.77543 8.1008C4.9769 8.1008 4.32956 8.74229 4.32956 9.5336C4.32956 10.3249 4.9769 10.9664 5.77544 10.9664H14.2056C15.0041 10.9664 15.6515 10.3249 15.6515 9.5336C15.6515 8.74229 15.0041 8.1008 14.2056 8.1008H5.77543ZM4.32956 26.1365C4.32956 25.3452 4.9769 24.7037 5.77543 24.7037H20.5773C21.3758 24.7037 22.0232 25.3452 22.0232 26.1365C22.0232 26.9278 21.3758 27.5693 20.5773 27.5693H5.77543C4.9769 27.5693 4.32956 26.9278 4.32956 26.1365ZM5.77543 16.4022C4.9769 16.4022 4.32956 17.0437 4.32956 17.8351C4.32956 18.6264 4.9769 19.2679 5.77543 19.2679H16.8033C17.6018 19.2679 18.2491 18.6264 18.2491 17.8351C18.2491 17.0437 17.6018 16.4022 16.8033 16.4022H5.77543Z" fill="#C4C4C4" fill-opacity="0.4"/>
</svg>
