<svg viewBox="0 0 41 29" fill="none" xmlns="http://www.w3.org/2000/svg">
<path id="Hammers" d="M37.6767 9.97404C35.8874 8.84138 35.7754 6.92035 35.943 6.10142C35.8157 5.40318 34.7563 3.43462 31.5376 1.14618C29.1376 -0.413994 23.6645 -0.0073009 22.8247 0.422297C28.4811 1.29495 29.965 3.44592 29.9999 4.41231L28.3686 6.00863L28.558 6.31002L27.0493 7.32256L27.204 7.55283L20.9353 11.7588L20.7631 11.4768C20.5755 11.5758 20.3733 11.683 20.159 11.7973C19.9448 11.683 19.7427 11.5758 19.5549 11.4768L19.3829 11.7588L13.1142 7.55283L13.2688 7.32256L11.7601 6.31002L11.9495 6.00863L10.3182 4.41231C10.3531 3.44592 11.837 1.29495 17.4935 0.422297C16.6536 -0.0073009 11.1805 -0.413994 8.78059 1.14618C5.56181 3.43462 4.50245 5.40318 4.37511 6.10142C4.54275 6.92035 4.43069 8.84138 2.64141 9.97404L1.53004 11.6362C1.4954 11.7071 1.47504 11.9038 1.67066 12.1231C1.86627 12.3424 3.89776 13.6322 4.88905 14.2497C4.95028 14.2623 5.09518 14.2479 5.18494 14.0898C5.2747 13.9317 5.89694 12.9032 6.19685 12.4088C6.16304 11.4612 6.42135 9.44825 7.72507 8.97731C9.02878 8.50637 9.97491 8.76898 10.285 8.95915L10.4513 8.74448L11.8315 9.65189L11.9596 9.44804L17.4255 13.2816C14.5627 14.8633 11.2527 16.7798 10.019 17.7843C7.78958 19.5992 2.26056 23.6395 0.745191 23.9434C-0.426059 24.1782 0.10122 25.8288 0.548804 26.7064L0.544826 26.7091C0.554902 26.7255 0.565252 26.742 0.575869 26.7587L0.583034 26.7724C0.587198 26.7802 0.591352 26.7881 0.595491 26.7958L0.598327 26.7939C1.12889 27.6162 2.26688 28.8596 2.98405 27.8356C3.91192 26.5107 9.7356 22.9825 12.2385 21.6428C13.7836 20.8155 17.424 18.0041 20.159 15.8132C22.8942 18.0041 26.5345 20.8155 28.0797 21.6428C30.5825 22.9825 36.4062 26.5107 37.334 27.8356C38.0513 28.8596 39.1892 27.6162 39.7198 26.7939L39.7226 26.7958C39.7291 26.7836 39.7357 26.7712 39.7422 26.7587C39.7529 26.742 39.7633 26.7255 39.7733 26.7091L39.7694 26.7064C40.2169 25.8288 40.7441 24.1782 39.573 23.9434C38.0576 23.6395 32.5286 19.5992 30.2992 17.7843C29.0654 16.7798 25.7555 14.8633 22.8926 13.2816L28.3585 9.44804L28.4866 9.65189L29.8668 8.74448L30.0331 8.95915C30.3432 8.76898 31.2893 8.50637 32.5931 8.97731C33.8968 9.44825 34.1551 11.4612 34.1213 12.4088C34.4211 12.9032 35.0434 13.9317 35.1332 14.0898C35.2229 14.2479 35.3678 14.2623 35.4291 14.2497C36.4204 13.6322 38.4519 12.3424 38.6474 12.1231C38.8431 11.9038 38.8228 11.7071 38.7881 11.6362L37.6767 9.97404Z" fill="#2B2B2B" fill-opacity="0.05"/>
</svg>
