<svg viewBox="0 0 46 32" fill="none" xmlns="http://www.w3.org/2000/svg">
<path id="YoutubeIcon" fill-rule="evenodd" clip-rule="evenodd" d="M18.6015 16.1418L18.6028 16.2993H18.6002L18.5437 23.1135L30.0929 16.1418L18.5437 9.16996L18.6002 15.9842H18.6028L18.6015 16.1418ZM0.547162 15.9842C0.579552 11.4819 1.29322 6.76491 1.65417 4.93406L1.67312 4.84921C1.89741 3.83958 2.44936 1.35507 6.43669 0.980923C13.7418 0.503362 20.2915 0.333496 22.9164 0.304047L22.9165 0.301479L23.046 0.302673L23.1755 0.301479L23.1756 0.304047C25.8006 0.333496 32.3503 0.503362 39.6554 0.980923C43.6427 1.35507 44.1946 3.83958 44.4189 4.84921L44.4278 4.88893L44.4379 4.93406C44.7988 6.76491 45.5125 11.4819 45.5449 15.9842H45.546C45.546 16.0367 45.5459 16.0892 45.5457 16.1418C45.5459 16.1943 45.546 16.2468 45.546 16.2993H45.5449C45.5125 20.8016 44.7988 25.5186 44.4379 27.3495L44.4278 27.3946L44.4189 27.4343C44.1946 28.4439 43.6427 30.9284 39.6554 31.3026C32.3503 31.7801 25.8006 31.95 23.1756 31.9795L23.1755 31.982L23.046 31.9808L22.9165 31.982L22.9164 31.9795C20.2915 31.95 13.7418 31.7801 6.43669 31.3026C2.44936 30.9284 1.89741 28.4439 1.67312 27.4343L1.65417 27.3495C1.29322 25.5186 0.579552 20.8016 0.547162 16.2993H0.546021C0.546021 16.2468 0.546117 16.1943 0.546308 16.1418C0.546117 16.0892 0.546021 16.0367 0.546021 15.9842H0.547162Z" fill="#2B2B2B" fill-opacity="0.05"/>
</svg>
