<svg viewBox="0 0 46 33" fill="none" xmlns="http://www.w3.org/2000/svg">
<g id="Youtube">
<path d="M23.1421 0.143982C23.1002 0.144337 23.0571 0.144735 23.0126 0.145176C22.9682 0.144735 22.925 0.144337 22.8831 0.143982L22.883 0.146548C20.2581 0.175996 13.7084 0.345866 6.4033 0.823427C2.41597 1.19757 1.86403 3.68208 1.63973 4.69172L1.63962 4.69224C1.63309 4.72162 1.62684 4.74976 1.62079 4.77656C1.2514 6.65018 0.512634 11.5463 0.512634 16.1418H18.5694L18.6281 9.05057L30.2577 16.1418H45.5126C45.5126 11.5463 44.7739 6.65018 44.4045 4.77656C44.3991 4.75269 44.3935 4.72776 44.3878 4.70183L44.3877 4.70133L44.3858 4.69279L44.3855 4.69172C44.1612 3.68208 43.6093 1.19757 39.622 0.823427C32.3169 0.345866 25.7672 0.175996 23.1422 0.146548L23.1421 0.143982Z" fill="#C4C4C4" fill-opacity="0.4"/>
<path d="M18.5694 16.1462L18.5103 23.2755L30.2925 16.163L30.2649 16.1462H45.5126C45.5126 20.7417 44.7739 25.6378 44.4045 27.5114C44.4012 27.5261 44.3978 27.5411 44.3944 27.5565C44.3915 27.5695 44.3885 27.5827 44.3855 27.5962C44.1612 28.6059 43.6093 31.0904 39.622 31.4645C32.3169 31.9421 25.7672 32.112 23.1422 32.1414L23.1421 32.144C23.1002 32.1436 23.0571 32.1432 23.0126 32.1428C22.9682 32.1432 22.925 32.1436 22.8831 32.144L22.883 32.1414C20.2581 32.112 13.7084 31.9421 6.4033 31.4645C2.41597 31.0904 1.86403 28.6059 1.63973 27.5962L1.6397 27.5961C1.63314 27.5666 1.62686 27.5383 1.62079 27.5114C1.2514 25.6378 0.512634 20.7417 0.512634 16.1462H18.5694Z" fill="#C4C4C4" fill-opacity="0.4"/>
</g>
</svg>
